<?xml version="1.0" standalone="no"?><!DOCTYPE svg PUBLIC "-//W3C//DTD SVG 1.1//EN" "http://www.w3.org/Graphics/SVG/1.1/DTD/svg11.dtd"><svg t="1595123859588" class="icon" viewBox="0 0 1024 1024" version="1.1" xmlns="http://www.w3.org/2000/svg" p-id="3742" xmlns:xlink="http://www.w3.org/1999/xlink" width="200" height="200"><defs><style type="text/css"></style></defs><path d="M66.047515 765.152195c-13.559265 33.634643-14.972687 59.890746-2.036285 75.833663 48.643264 59.890746 281.72607-48.966674 520.618278-243.060604s393.134836-399.986337 344.491572-459.84115c-8.935699-10.995941-24.088058-16.302261-44.319152-16.43402" fill="#2aa515" p-id="3743"></path><path d="M946.609178 242.294003c-65.137176 136.203535-178.917615 279.294506-330.513072 402.465814-149.319608 121.338652-310.054393 202.682263-455.001977 239.383313 91.668776 86.482237 214.923932 139.85687 350.959773 139.85687 282.768169 0 511.994011-229.23782 511.994011-512.005989a508.843758 508.843758 0 0 0-77.438735-269.700008z" fill="#2aa515" p-id="3744"></path><path d="M511.994011 0C229.225842 0 0 229.23782 0 511.994011c0 128.72917 47.852706 246.043163 126.285627 335.999064 143.366468-32.137374 307.982173-113.696593 461.314462-238.293301C743.172291 483.318322 857.982852 336.442256 918.113161 201.089169 824.539859 79.043807 677.675771 0 511.994011 0z m60.238112 271.065517a90.363158 90.363158 0 1 1 90.35118-90.351179 90.35118 90.35118 0 0 1-90.35118 90.351179z" fill="#2aa515" p-id="3745"></path></svg>